<svg width="28" height="28" viewBox="0 0 28 28" fill="none" xmlns="http://www.w3.org/2000/svg">
<g id="Vector">
<path id="Vector_2" d="M28 25.2587L21.2683 18.5035C22.6016 16.5781 23.4146 14.2611 23.4146 11.7483C23.4146 5.25408 18.1789 0 11.7073 0C5.23577 0 0 5.25408 0 11.7483C0 18.2424 5.23577 23.4965 11.7073 23.4965C14.2439 23.4965 16.6179 22.6807 18.5366 21.2774L25.2358 28L28 25.2587ZM11.7073 19.5804C7.41463 19.5804 3.90244 16.0559 3.90244 11.7483C3.90244 7.44056 7.41463 3.91608 11.7073 3.91608C16 3.91608 19.5122 7.44056 19.5122 11.7483C19.5122 16.0559 16 19.5804 11.7073 19.5804Z" fill="#AEAEAE"/>
</g>
</svg>
