<svg width="90" height="40" viewBox="0 0 90 40" fill="none" xmlns="http://www.w3.org/2000/svg">
<path d="M0 19.2123V0H2.49953V9.02397L11.2158 0H14.4204L5.28747 9.33219L15.0613 19.2123H11.8568L2.49953 9.82877V19.2123H0ZM84.6156 39.9829H84.4553C83.5799 39.9821 82.7117 39.8139 81.8917 39.4863C81.1335 39.1956 80.452 38.714 79.9049 38.0822C79.3915 37.4875 79.0422 36.7527 78.8955 35.9589L80.69 35.7021C80.9141 36.5419 81.4299 37.2586 82.132 37.7055C82.8721 38.1808 83.7201 38.4296 84.5835 38.4247H84.8239C85.37 38.4315 85.9128 38.3329 86.4261 38.1336C86.8927 37.979 87.3128 37.6955 87.6438 37.3116C87.8073 37.134 87.9344 36.9221 88.0171 36.6892C88.0999 36.4564 88.1364 36.2077 88.1245 35.9589C88.1286 35.701 88.0677 35.4467 87.9483 35.2226C87.8461 35.0064 87.7044 34.8143 87.5317 34.6575C87.3347 34.4974 87.1193 34.3651 86.8908 34.2637L86.1537 33.9384L82.5486 32.911C82.1641 32.7911 81.7635 32.6541 81.395 32.5C81.0432 32.3242 80.7146 32.0997 80.4176 31.8322C80.1395 31.5678 79.9172 31.2434 79.7653 30.8803C79.6133 30.5172 79.5353 30.1238 79.5364 29.726V29.5034C79.5248 28.803 79.7273 28.1176 80.1132 27.5514C80.5874 26.9643 81.1941 26.5163 81.8757 26.25C82.6631 25.9513 83.4916 25.7951 84.3272 25.7877H84.5034C85.3467 25.7984 86.1817 25.9664 86.9709 26.2842C87.685 26.5816 88.3223 27.0572 88.8295 27.6712C89.3383 28.2626 89.6872 28.9906 89.8389 29.7774L87.9803 30.1027C87.8816 29.5722 87.6489 29.0807 87.3074 28.6815C86.9698 28.2582 86.5409 27.929 86.0576 27.7226C85.5451 27.5181 85.0024 27.4137 84.4553 27.4144H84.2951C83.8011 27.408 83.3109 27.507 82.8531 27.7055C82.4277 27.8455 82.0457 28.1058 81.7475 28.4589C81.4768 28.7567 81.3271 29.1567 81.3309 29.5719C81.3297 29.7515 81.3632 29.9293 81.4293 30.0944C81.4955 30.2594 81.5929 30.408 81.7155 30.5308C81.9743 30.7882 82.2797 30.9863 82.6127 31.113C82.964 31.2592 83.3223 31.3849 83.6862 31.4897L86.3941 32.2431L87.4676 32.5685C87.8764 32.7426 88.2727 32.9487 88.6533 33.1849C89.0255 33.4629 89.3416 33.8181 89.5826 34.2295C89.8222 34.6968 89.9488 35.2206 89.9511 35.7534V35.9589C89.9629 36.5598 89.8187 37.1525 89.5345 37.6712C89.2574 38.19 88.8739 38.6349 88.4129 38.9726C87.8873 39.3254 87.3147 39.591 86.7145 39.7603C86.093 39.9029 85.4595 39.9775 84.8239 39.9829H84.5675H84.6156ZM62.1839 39.6918V25.9931H63.7861L69.1377 36.8664L74.4412 25.9931H76.0434V39.6918H74.4412V29.7774L69.6344 39.6918H68.7051L63.8983 29.7774V39.6918H62.1839ZM50.1669 39.6918V25.9931H59.1235V27.6199H51.9774V31.8664H57.9859V33.4931H51.9774V38.0308H59.1716V39.6233L50.1669 39.6918ZM41.3064 39.6918V27.7055H36.4996V26.113H47.8756V27.7055H43.0689V39.6918H41.3064ZM29.5938 39.9829H29.4496C28.5742 39.9821 27.706 39.8139 26.886 39.4863C26.1278 39.1956 25.4463 38.714 24.8992 38.0822C24.404 37.4788 24.0669 36.7463 23.9218 35.9589L25.7324 35.7021C25.9793 36.5407 26.5185 37.2458 27.2385 37.6712C27.9735 38.1443 28.8159 38.393 29.6739 38.3904H29.8982C30.4445 38.3996 30.9877 38.3009 31.5005 38.0993C31.9747 37.9409 32.4043 37.6584 32.7503 37.2774C33.0438 36.936 33.2093 36.491 33.2149 36.0274C33.2041 35.7716 33.1441 35.521 33.0387 35.2911C32.9295 35.07 32.7764 34.8771 32.59 34.726C32.3931 34.5659 32.1777 34.4335 31.9491 34.3322L31.2281 34.0069L27.607 32.9795C27.2225 32.8596 26.8379 32.7226 26.4694 32.5685C26.1176 32.3927 25.789 32.1682 25.492 31.9007C25.1941 31.6401 24.9535 31.3127 24.787 30.9418C24.6225 30.5482 24.5352 30.1228 24.5307 29.6918V29.5719C24.5387 28.8453 24.7695 28.1415 25.1876 27.5685C25.6741 26.9806 26.2912 26.5331 26.9821 26.2671C27.759 25.9727 28.5772 25.8221 29.4015 25.8219H29.5938C30.4377 25.8257 31.2739 25.994 32.0613 26.3185C32.782 26.6036 33.4258 27.0741 33.9359 27.6884C34.4267 28.2971 34.7534 29.0369 34.8813 29.8288L33.0387 30.1541C32.94 29.6236 32.7073 29.1321 32.3657 28.7329C32.0248 28.3134 31.5968 27.9851 31.116 27.774C30.6038 27.568 30.0609 27.4636 29.5137 27.4658H29.3535C28.8595 27.4594 28.3692 27.5584 27.9114 27.7568C27.4861 27.8968 27.1041 28.1572 26.8059 28.5103C26.5352 28.8081 26.3855 29.2081 26.3893 29.6233C26.388 29.8028 26.4215 29.9807 26.4877 30.1457C26.5539 30.3107 26.6513 30.4594 26.7738 30.5822C27.0285 30.8455 27.3351 31.0444 27.6711 31.1644C28.0197 31.3181 28.3786 31.4441 28.7446 31.5411L31.4524 32.2945L32.526 32.6199C32.9258 32.7907 33.3117 32.9969 33.6796 33.2363C34.0688 33.5037 34.3972 33.8605 34.6409 34.2808C34.8805 34.7481 35.0072 35.2719 35.0095 35.8048V35.9589C35.0133 36.5588 34.8697 37.1493 34.5929 37.6712C34.3158 38.19 33.9323 38.6349 33.4713 38.9726C32.9457 39.3254 32.373 39.591 31.7729 39.7603C31.1514 39.9029 30.5179 39.9775 29.8822 39.9829H29.5938ZM16.5354 39.6918V33.9555L11.7286 26.0103H13.8596L17.4807 32.0377L21.0858 26.0103H23.1207L18.3139 33.9555V39.6062L16.5354 39.6918ZM5.67201 39.9829H5.51179C4.64157 39.9823 3.77857 39.8141 2.96419 39.4863C2.20399 39.1999 1.52158 38.7176 0.977381 38.0822C0.482242 37.4788 0.14507 36.7463 0 35.9589L1.81056 35.7021C2.02992 36.5209 2.52691 37.2229 3.20453 37.6712C3.9386 38.1468 4.78158 38.3957 5.63997 38.3904H5.92838C6.47427 38.394 7.01653 38.2955 7.53064 38.0993C7.99536 37.9405 8.41448 37.6576 8.74836 37.2774C8.91422 37.1063 9.04643 36.9016 9.13723 36.6752C9.22803 36.4488 9.27559 36.2052 9.27711 35.9589C9.27071 35.7025 9.21048 35.4508 9.10086 35.2226C8.99655 34.9981 8.84255 34.8041 8.65223 34.6575C8.45324 34.496 8.23833 34.3582 8.01132 34.2466L7.19416 33.9384L3.58907 32.911C3.20453 32.7911 2.80396 32.6541 2.43544 32.5C2.08778 32.3163 1.76002 32.0923 1.45806 31.8322C1.16298 31.5651 0.926687 31.2317 0.766048 30.8558C0.60541 30.4799 0.524382 30.0708 0.528747 29.6575V29.4863C0.5285 28.7662 0.75416 28.0669 1.16965 27.5C1.65613 26.9121 2.27328 26.4646 2.96419 26.1986C3.74147 25.9058 4.55944 25.7553 5.38361 25.7534H5.55986C6.39981 25.76 7.23122 25.9343 8.01132 26.2671C8.73199 26.5523 9.37584 27.0228 9.88597 27.637C10.378 28.2428 10.7001 28.9847 10.8153 29.7774L8.95666 30.1027C8.87081 29.5711 8.64263 29.0774 8.29973 28.6815C7.96218 28.2582 7.53323 27.929 7.04996 27.7226C6.5371 27.5195 5.99463 27.4152 5.4477 27.4144H5.31952C4.83086 27.4099 4.3462 27.5088 3.8935 27.7055C3.4664 27.8414 3.08344 28.1024 2.78794 28.4589C2.51726 28.7567 2.36754 29.1567 2.37135 29.5719C2.37009 29.7515 2.4036 29.9293 2.46977 30.0944C2.53595 30.2594 2.63337 30.408 2.75589 30.5308C3.01214 30.7918 3.31825 30.9905 3.65316 31.113C3.99992 31.2721 4.35916 31.3982 4.72668 31.4897L7.45053 32.226L8.52404 32.5514C8.93055 32.7187 9.32204 32.925 9.6937 33.1678C10.0793 33.4398 10.4069 33.7958 10.6551 34.2123C10.8897 34.6809 11.0109 35.2048 11.0076 35.7363V35.9589C11.0219 36.5602 10.8776 37.1536 10.591 37.6712C10.3181 38.1933 9.93381 38.6391 9.46938 38.9726C8.97901 39.3267 8.43779 39.5928 7.86712 39.7603C7.22579 39.9169 6.57022 39.9973 5.91235 40L5.67201 39.9829ZM75.5307 19.2123V0H83.542C84.5367 0.00399855 85.5175 0.249938 86.4101 0.719178C87.2057 1.1362 87.881 1.77515 88.3649 2.56849C88.8161 3.33745 89.0498 4.2294 89.0378 5.13699C89.0343 6.08916 88.742 7.01445 88.2046 7.77397C87.6417 8.55814 86.8537 9.12353 85.9615 9.38356V8.75C87.101 9.01404 88.1363 9.64799 88.9256 10.5651C89.6374 11.4295 90.0204 12.5474 89.9992 13.6986V13.9212C90.0001 14.8989 89.7507 15.8581 89.2781 16.6952C88.7796 17.5262 88.0676 18.1861 87.2272 18.5959C86.2841 19.045 85.2635 19.2783 84.231 19.2808H75.5788L75.5307 19.2123ZM78.0303 8.03082H83.3177C83.871 8.03043 84.4176 7.90191 84.92 7.65411C85.3791 7.43593 85.7728 7.08628 86.0576 6.64384C86.3508 6.20295 86.5127 5.67779 86.5223 5.13699C86.5152 4.76305 86.4329 4.39512 86.2808 4.05827C86.1287 3.72141 85.9105 3.42353 85.641 3.18493C85.0335 2.67433 84.2829 2.3969 83.51 2.39726H78.0783L78.0303 8.03082ZM78.0303 16.9521H83.6061C84.2652 16.9589 84.9189 16.825 85.5289 16.5582C86.0963 16.3278 86.5908 15.93 86.9549 15.411C87.291 14.9135 87.4655 14.3121 87.4516 13.6986C87.4457 13.0956 87.2909 12.5049 87.0029 11.9863C86.6828 11.4699 86.2479 11.0463 85.7371 10.7534C85.1807 10.4502 84.5671 10.2863 83.9426 10.274H78.0783L78.0303 16.9521ZM55.2621 19.2123L61.9756 0H65.3724L72.1019 19.2123H69.5383L63.2574 1.40411H64.0906L57.9058 19.2123H55.2621ZM58.4666 14.726V12.5H68.8973V14.726H58.4666ZM35.394 19.2123L42.0594 0H45.5043L52.2018 19.2123H49.6702L43.3733 1.40411H44.1424L37.9576 19.2123H35.394ZM38.5985 14.726V12.5H48.9492V14.726H38.5985ZM18.0094 19.2123V0H26.5976L27.3506 0.10274C28.3242 0.222247 29.2575 0.58602 30.0745 1.16438C30.768 1.71595 31.3193 2.44649 31.6768 3.28767C32.0328 4.12697 32.2185 5.03737 32.2215 5.9589V6.25C32.2158 7.59358 31.7994 8.89836 31.0359 9.96575C30.1489 11.0824 28.9027 11.8033 27.5429 11.9863L26.6136 12.1404H20.509V19.1952L18.0094 19.2123ZM20.509 9.86301H26.4694H27.0943C27.6454 9.7707 28.1643 9.52627 28.5999 9.15387C29.0355 8.78148 29.3726 8.29403 29.5778 7.73973C29.7828 7.24367 29.8866 6.70664 29.8822 6.16438C29.8851 5.62228 29.7814 5.08557 29.5778 4.58904C29.3692 4.04912 29.0389 3.57266 28.6164 3.20205C28.1618 2.78451 27.6067 2.51161 27.0142 2.41438C26.7962 2.42715 26.5781 2.39219 26.3733 2.31164H20.509V9.86301ZM29.9463 19.2123L25.9407 11.4041L28.3921 10.6849L32.7182 19.2466L29.9463 19.2123Z" fill="#E9E9E9"/>
</svg>
